<?xml version="1.0" encoding="UTF-8"?>
<svg viewBox="118.7653 174.0654 262.4694 184" width="262.469" height="184" xmlns="http://www.w3.org/2000/svg">
  <g transform="matrix(0.1000000014901161, 0, 0, -0.1000000014901161, 101.82062682242132, 366.0653741071429)" fill="#000000" stroke="none">
    <path d="M1435 1859 c-38 -33 -79 -68 -90 -77 -20 -17 -336 -301 -445 -400 l-59 -52 -43 29 c-88 59 -232 86 -325 61 -149 -41 -261 -152 -290 -290 -24 -112 -16 -214 23 -284 24 -44 116 -138 167 -171 68 -44 337 -37 388 11 14 13 29 24 35 24 5 0 153 -142 329 -315 176 -173 325 -315 331 -315 6 0 17 7 25 16 7 8 65 59 128 112 64 53 143 122 176 153 33 31 93 81 132 111 40 30 102 82 138 116 l65 62 67 -34 c104 -52 135 -59 237 -54 75 4 101 9 146 32 189 98 259 259 208 484 -20 92 -52 143 -129 208 -68 57 -138 84 -217 84 -70 0 -174 -26 -213 -54 -38 -26 -55 -19 -111 46 -29 34 -73 83 -98 108 -25 25 -59 62 -76 81 -17 19 -51 52 -75 73 -97 86 -224 202 -234 213 -22 25 -98 83 -108 83 -7 -1 -43 -28 -82 -61z" />
  </g>
</svg> 